<svg width="287" height="287" viewBox="0 0 287 287" fill="none" xmlns="http://www.w3.org/2000/svg">
<path d="M28.8226 151.641H121.708V88.6799H28.8226V151.641ZM28.8226 59.861H243.417V29.03H28.8226V59.861ZM28.8226 272.447C20.9372 272.447 14.1615 269.615 8.49543 263.951C2.83181 258.285 0 251.51 0 243.624V29.03C0 21.0888 2.83181 14.2658 8.49543 8.56093C14.1615 2.85365 20.9372 0 28.8226 0H243.417C251.358 0 258.181 2.85365 263.886 8.56093C269.593 14.2658 272.447 21.0888 272.447 29.03V128.276C267.816 125.923 263.065 124.33 258.192 123.498C253.319 122.664 248.394 122.505 243.417 123.022C237.501 123.541 231.661 124.973 225.898 127.319C220.135 129.664 214.939 133.195 210.308 137.91L196.785 151.641L121.708 226.215V272.447H28.8226ZM28.8226 243.624H121.708V180.667H28.8226V243.624ZM150.531 151.641H196.785L210.308 137.91C214.939 133.195 220.135 129.664 225.898 127.319C231.661 124.973 237.501 123.541 243.417 123.022V88.6799H150.531V151.641ZM149.851 287V237.93L231.079 157.065C233.553 154.519 236.303 152.68 239.327 151.55C242.354 150.417 245.453 149.851 248.623 149.851C251.808 149.851 254.943 150.499 258.028 151.797C261.114 153.095 263.879 154.972 266.324 157.429L279.785 170.891C282.218 173.348 284.029 176.094 285.217 179.128C286.406 182.162 287 185.196 287 188.227C287 191.444 286.351 194.619 285.053 197.753C283.756 200.884 281.889 203.678 279.454 206.135L198.92 287H149.851ZM174.766 262.085H188.591L231.996 218.363L218.534 204.854L174.766 248.212V262.085ZM225.447 211.403L218.534 204.854L231.996 218.316L225.447 211.403Z" fill="#063A5D"/>
</svg>
